# xmcd
#
# Track frame offsets: 
#        150
#        13482
#        25706
#        41389
#        55559
#        68857
#        82115
#        94539
#        109054
#        123009
#        136168
#        150515
#        162916
#        176425
#        190800
#        203996
#
# Disc length: 2876 seconds
#
# Revision: 0
# Processed by: cddbd v1.5.2PL0 Copyright (c) Steve Scherf et al.
# Submitted via: ExactAudioCopy v0.99pb3
#
DISCID=c50b3a10
DTITLE=Joh Lee Hooker - Burning Hell
DYEAR=2003
DGENRE=Blues
TTITLE0=Welfare Blues
TTITLE1=Rollin' Blues
TTITLE2=Hey Baby
TTITLE3=Boogie Chillen
TTITLE4=Union Blues
TTITLE5=Ground Hog Blues
TTITLE6=Boogie Chillen No.2
TTITLE7=Sugar Mama
TTITLE8=Worried Life Blues
TTITLE9=Walkin' The Boogie
TTITLE10=Sally Mae
TTITLE11=Canal Street Blues
TTITLE12=Love Blues
TTITLE13=Blues For Big Town
TTITLE14=Down At The Landing
TTITLE15=Howlin' Wolf
EXTD=
EXTT0=
EXTT1=
EXTT2=
EXTT3=
EXTT4=
EXTT5=
EXTT6=
EXTT7=
EXTT8=
EXTT9=
EXTT10=
EXTT11=
EXTT12=
EXTT13=
EXTT14=
EXTT15=
PLAYORDER=
